<?xml version="1.0" encoding="UTF-8" standalone="no"?><svg version="1.1" viewBox="0 0 1024 1024" xml:space="preserve" xmlns:xlink="http://www.w3.org/1999/xlink" xmlns="http://www.w3.org/2000/svg" xmlns:svg="http://www.w3.org/2000/svg"><defs><linearGradient id="b"><stop offset="0" stop-color="#f6c743"/><stop offset=".25" stop-color="#f7cd46"/><stop offset=".5" stop-color="#f9d649"/><stop offset=".75" stop-color="#fbe04b"/><stop offset="1" stop-color="#fae54c"/></linearGradient><linearGradient id="c"><stop offset="0" stop-color="#f8f8fd"/><stop offset=".125" stop-color="#ebebef"/><stop offset=".25" stop-color="#d9d9de"/><stop offset=".5" stop-color="#aeaeb2"/><stop offset=".75" stop-color="#88888a"/><stop offset=".875" stop-color="#78797b"/><stop offset="1" stop-color="#6f6f70"/></linearGradient><linearGradient id="d"><stop offset="0" stop-color="#fffbd6"/><stop offset=".14980544" stop-color="#fcf6cf"/><stop offset=".25" stop-color="#f2eaba"/><stop offset=".5" stop-color="#f2eab3"/><stop offset=".75" stop-color="#e5deab"/><stop offset="1" stop-color="#d5cb96"/></linearGradient><linearGradient xlink:href="#a" id="e" x1="512" y1="0" x2="512" y2="1024" gradientUnits="userSpaceOnUse"/><linearGradient id="a"><stop offset="0" stop-color="#313131"/><stop offset=".25" stop-color="#292929"/><stop offset=".5" stop-color="#222"/><stop offset=".75" stop-color="#1b1b1b"/><stop offset="1" stop-color="#141414"/></linearGradient><linearGradient xlink:href="#b" id="f" x1="413.45892" y1="328.8887" x2="413.45892" y2="888.88855" gradientUnits="userSpaceOnUse" gradientTransform="translate(418.51323 27.151737) scale(.65656282)"/><linearGradient xlink:href="#c" id="g" gradientUnits="userSpaceOnUse" gradientTransform="matrix(.21429859 0 0 .49468986 202.72135 335.47602)" x1="1058.0272" y1="-15.692924" x2="1058.0272" y2="888.8866"/><linearGradient xlink:href="#d" id="i" gradientUnits="userSpaceOnUse" gradientTransform="translate(418.51323 27.151737) scale(.65656282)" x1="413.45892" y1="457.77972" x2="413.45892" y2="888.88855"/><clipPath clipPathUnits="userSpaceOnUse" id="h"><path d="M429.45508 327.71289c-98.86693 0-179.17278 79.04928-180.99414 177.23633-55.81895 18.00627-96.21095 70.14659-96.21094 131.73828.00001 76.19793 62.67475 138.00339 139.07422 138.48828v.02344h339.11914c91.54679.00001 166.73632-73.91297 166.73633-165.08984.00001-91.17689-74.21298-165.08986-165.75977-165.08985-10.69687 0-21.14201 1.04943-31.27344 2.97852-24.90106-70.07812-91.90393-120.28517-170.6914-120.28516Z"/></clipPath><filter id="j" x="-.14282997" y="-.14283004" width="1.2856599" height="1.2856601" color-interpolation-filters="sRGB"><feGaussianBlur stdDeviation="21.881263"/></filter></defs><path d="M1023.9999 703.6703c0 12.24394 0 24.46578-.0923 36.68749-.0607 10.3073-.1779 20.61447-.4453 30.89954-.2837 22.5344-2.2629 45.01565-5.9213 67.25295-3.8067 22.26183-10.9078 43.8113-21.08088 63.9583-20.61945 40.48081-53.52839 73.39129-94.0071 94.01169-20.13757 10.15963-41.67821 17.25773-63.91054 21.05973-22.26075 3.6732-44.74408 5.6545-67.27194 5.9217-10.29726.2661-20.59722.4218-30.89785.4669-12.2434.0714-24.46445.0714-36.68562.0714H320.3129c-12.22115 0-24.44231 0-36.68569-.0606-10.30054-.0405-20.60048-.1866-30.89786-.4453-22.54148-.2877-45.0292-2.2745-67.27197-5.944-22.23846-3.7846-43.78676-10.9085-63.91051-21.05986-40.474453-20.61649-73.382628-53.51855-94.007081-93.99013-10.169994-20.15946-17.275178-41.72376-21.0808488-63.98053C2.8006217 816.28975.82124261 793.81592.53759651 771.28886c-.26726224-10.3073-.40038136-20.61447-.44543709-30.9217C0 728.12315 0 715.9236 0 703.67966V320.33072c0-12.24407 0-24.48805.09215942-36.73201.04096-10.28505.17817485-20.59224.44543709-30.87719.2836461-22.52708 2.26333229-45.00092 5.92134369-67.23084 3.8065928-22.26176 10.9077838-43.81123 21.0808488-63.98046 20.619436-40.480777 53.52833-73.391427 94.007081-94.011821 20.13183-10.154396 41.66437-17.252253 63.8883-21.0596905C207.69585 2.7877383 230.17916.80650253 252.70702.51712013 263.01382.24985607 273.32052.11673607 283.60489.07168 295.84836 0 308.09175 0 320.29058 0h383.3742c12.24346 0 24.48687 0 36.70798.07168 10.30056.04096 20.60038.18636807 30.89785.44544013 22.52786.289792 45.01119 2.27061817 67.24964 5.92158837 22.26069 3.8068235 43.78692 10.9083665 63.93283 21.0596905 40.48882 20.614147 73.40659 53.525823 94.02934 94.011821 10.16138 20.15325 17.25908 41.71 21.05858 63.95824 3.6587 22.23729 5.638 44.7185 5.9214 67.25306.2674 10.30717.4002 20.61446.4453 30.89941.0923 12.24398.0923 24.46572.0923 36.68746Z" fill="url(#e)"/><path d="M873.81258 426.92536A183.83756 183.8375 0 0 1 689.975 610.76284a183.83756 183.8375 0 0 1-183.83758-183.83748A183.83756 183.8375 0 0 1 689.975 243.08785a183.83756 183.8375 0 0 1 183.83758 183.83751Z" fill="url(#f)"/><path d="M429.45508 327.71289c-98.86693 0-179.17278 79.04928-180.99414 177.23633-55.81895 18.00627-96.21095 70.14659-96.21094 131.73828.00001 76.19793 62.67475 138.00339 139.07422 138.48828v.02344h339.11914c91.54679.00001 166.73632-73.91297 166.73633-165.08984.00001-91.17689-74.21298-165.08986-165.75977-165.08985-10.69687 0-21.14201 1.04943-31.27344 2.97852-24.90106-70.07812-91.90393-120.28517-170.6914-120.28516z" fill="url(#g)"/><path d="M873.81258 426.92536A183.83756 183.8375 0 0 1 689.975 610.76284a183.83756 183.8375 0 0 1-183.83758-183.83748A183.83756 183.8375 0 0 1 689.975 243.08785a183.83756 183.8375 0 0 1 183.83758 183.83751Z" clip-path="url(#h)" fill="url(#i)" filter="url(#j)"/></svg>